# xmcd
#
# Track frame offsets:
#	150
#	19242
#	45235
#	55828
#	79578
#	99646
#	115098
#	133637
#	148496
#	168142
#	185304
#	196202
#	205036
#	223139
#	237510
#	265080
#	277484
#	297520
#	324399
#
# Disc length: 4745
#
# Revision: 2
# Processed by: cddbd v1.5.1PL0 Copyright (c) Steve Scherf et al.
# Submitted via: CDmax 1.9
# Normalized: r1:DSETVAR1,TDELIM( - )
#
DISCID=21128713
DTITLE=Various Artist - Feel Good Hits of the Summer
DYEAR=2002
DGENRE=Blues
TTITLE0=BUSTER POINDEXTER - Hot Hot Hot
TTITLE1=SHY FX - Shake Ur Body
TTITLE2=ANIMAL and THE MUPPETS - Mahna Mahna
TTITLE3=JAMIE STARR SCENARIO - Welcome To The Light
TTITLE4=SKA-P - Cannabis
TTITLE5=CLAUDE FRANCOIS - Je Vais A Rio
TTITLE6=KID CREOLE and THE COCONUTS - Annie
TTITLE7=PHENOMENAL CLUB - Il Est Vraiment
TTITLE8=LA COMPAGNIE CREOLE - C'est Bon Pour Le Moral
TTITLE9=INNER CIRCLE - Sweat
TTITLE10=MADNESS - One Step Beyond
TTITLE11=MANO NEGRA - King Kong Five
TTITLE12=MORY KANTE - Yeke Yeke
TTITLE13=ROBERTO JACKETTI and THE SCOOTERS - I Save The Day
TTITLE14=PIGBAG - Papa's Got A Brand New Pigbag
TTITLE15=RAPHAELLA CARRA - A Far l'Amore Commincia Tu
TTITLE16=ORISHAS - 537 C.U.B.A.
TTITLE17=SASH - Ecuador
TTITLE18=TWO MAN SOUND - Disco Samba
EXTD=
EXTT0=
EXTT1=
EXTT2=
EXTT3=
EXTT4=
EXTT5=
EXTT6=
EXTT7=
EXTT8=
EXTT9=
EXTT10=
EXTT11=
EXTT12=
EXTT13=
EXTT14=
EXTT15=
EXTT16=
EXTT17=
EXTT18=
PLAYORDER=
